<?xml version="1.0" standalone="no"?>
<!DOCTYPE svg PUBLIC "-//W3C//DTD SVG 20010904//EN"
 "http://www.w3.org/TR/2001/REC-SVG-20010904/DTD/svg10.dtd">
<svg version="1.0" xmlns="http://www.w3.org/2000/svg"
 width="500.000000pt" height="500.000000pt" viewBox="0 0 500.000000 500.000000"
 preserveAspectRatio="xMidYMid meet">

<g transform="translate(0.000000,500.000000) scale(0.100000,-0.100000)"
fill="#000000" stroke="none">
<path d="M2745 4759 c-247 -60 -447 -164 -599 -309 -78 -75 -83 -78 -141 -84
-52 -6 -198 -37 -246 -52 -12 -3 -25 9 -43 41 -26 44 -60 63 -91 52 -8 -4 -29
-31 -46 -62 -18 -31 -37 -58 -43 -60 -96 -24 -96 -24 -109 3 -21 45 -68 63
-190 74 -99 9 -123 8 -211 -10 -54 -12 -122 -33 -151 -47 -65 -31 -173 -113
-203 -154 l-22 -30 40 -173 c21 -95 44 -189 50 -208 13 -46 13 -73 -2 -92 -12
-15 -21 -15 -103 -1 -117 19 -216 14 -245 -12 -31 -28 -22 -69 51 -243 32 -78
59 -148 59 -155 0 -7 -21 -43 -46 -81 -82 -121 -71 -168 73 -317 48 -49 84
-91 82 -93 -2 -2 -53 -14 -114 -26 -117 -24 -264 -69 -330 -102 -22 -11 -68
-40 -102 -65 l-63 -44 0 -67 c1 -55 3 -63 12 -47 30 54 105 140 152 175 61 46
199 93 396 135 69 15 161 38 205 52 83 27 387 94 394 87 8 -7 -82 -115 -143
-171 -68 -64 -210 -159 -301 -203 -33 -16 -111 -43 -172 -59 -142 -39 -316
-102 -415 -152 -43 -22 -89 -39 -103 -39 -23 0 -25 -4 -25 -40 l0 -40 68 44
c65 42 202 106 226 106 6 0 -2 -11 -19 -23 -124 -91 -280 -259 -273 -293 2
-13 15 -1 46 39 67 90 107 124 190 166 73 36 212 91 233 91 5 0 -18 -32 -51
-72 -85 -101 -258 -364 -323 -489 l-54 -106 -21 56 -21 56 0 -39 c-1 -47 30
-147 44 -143 5 2 31 52 57 112 58 132 103 210 226 388 89 129 228 294 239 283
9 -8 -107 -295 -175 -436 -36 -74 -75 -157 -87 -185 -26 -62 -192 -356 -255
-451 -33 -50 -47 -81 -48 -109 l-2 -39 83 89 c187 202 345 409 406 531 90 184
186 442 231 621 21 85 25 93 53 103 16 5 32 10 33 10 2 0 4 -48 4 -106 0 -58
5 -194 11 -301 10 -188 10 -200 -11 -292 -63 -271 -176 -494 -543 -1066 -209
-327 -267 -431 -267 -482 0 -32 7 -22 63 88 34 68 133 233 219 365 157 241
331 530 393 654 49 98 103 232 129 322 13 45 26 77 29 72 3 -5 7 -88 8 -184
l4 -175 -48 -130 c-26 -71 -63 -186 -83 -255 -19 -69 -74 -244 -121 -390 -70
-213 -93 -272 -117 -299 -40 -43 -223 -181 -241 -181 -8 0 -18 -7 -23 -16 -5
-8 -28 -28 -53 -45 -24 -16 -38 -29 -31 -29 19 0 288 179 345 230 80 71 203
244 267 375 82 168 111 295 130 555 9 129 -1 548 -20 780 -5 69 -13 213 -16
321 l-7 195 78 37 c43 21 79 36 80 35 1 -2 6 -50 13 -108 22 -211 69 -385 144
-537 l51 -104 -7 -196 c-7 -207 -29 -475 -46 -582 -6 -35 -20 -77 -31 -92 -35
-49 -58 -114 -69 -189 -6 -40 -19 -91 -29 -114 l-19 -41 -1 120 c-2 204 -32
543 -52 590 -7 14 -8 7 -4 -25 21 -183 26 -261 32 -455 4 -147 2 -255 -6 -325
-15 -128 -58 -302 -99 -398 -34 -82 -23 -100 12 -19 40 89 73 207 95 333 18
106 45 193 61 194 3 0 6 -26 8 -58 2 -31 9 -97 17 -146 15 -91 14 -106 -10
-106 -24 0 -23 -25 4 -53 24 -26 26 -35 26 -123 0 -81 2 -94 17 -94 12 0 18
10 20 38 3 36 5 37 46 43 32 4 45 2 49 -8 8 -21 24 -16 60 19 28 27 36 30 43
18 7 -12 12 -12 34 0 22 11 31 11 65 -2 41 -16 64 -8 54 18 -3 8 -4 14 -2 14
2 0 19 4 37 9 30 9 34 7 57 -27 14 -20 25 -40 25 -43 0 -14 -54 -19 -87 -8
-31 10 -40 9 -75 -11 -55 -31 -146 -46 -238 -39 -17 1 -36 -3 -42 -9 -9 -9 15
-12 101 -12 101 0 120 3 173 27 54 24 62 25 98 13 22 -7 40 -19 40 -27 0 -7 9
-13 19 -13 14 0 18 5 14 20 -4 13 1 26 12 34 16 12 16 14 0 45 -9 18 -15 34
-13 35 20 13 60 24 74 21 11 -2 25 -4 33 -4 11 -1 12 -16 6 -76 l-7 -75 76 0
76 0 0 33 c0 17 5 49 11 70 8 32 13 36 25 27 7 -7 27 -10 44 -8 26 4 30 2 31
-21 2 -23 2 -23 6 -4 l4 22 37 -25 c22 -15 46 -24 59 -21 16 3 23 -1 23 -12 0
-13 2 -13 9 -2 7 11 11 10 20 -7 11 -21 46 -38 69 -34 6 2 12 -2 12 -8 0 -5 5
-10 10 -10 6 0 10 7 10 15 0 10 10 15 33 15 18 0 38 5 44 11 7 7 12 3 17 -14
5 -22 11 -24 63 -25 56 -1 57 -1 28 12 -45 20 -62 45 -69 106 -9 71 -48 184
-97 283 -47 95 -51 124 -12 99 22 -14 153 -206 183 -268 17 -34 40 -101 53
-150 25 -92 44 -101 32 -14 -6 42 -4 50 9 50 9 0 16 -6 16 -12 0 -10 2 -10 8
-1 9 15 72 -40 72 -63 0 -8 4 -13 9 -10 5 3 11 -3 14 -14 3 -12 14 -20 26 -20
16 0 21 6 21 28 0 21 -9 32 -38 49 -52 30 -189 159 -198 186 -3 12 -14 31 -23
41 -9 11 15 -4 52 -32 38 -29 74 -52 80 -52 12 1 0 12 -87 83 -71 58 -58 74
18 22 35 -25 74 -45 87 -45 18 0 4 13 -53 50 -43 27 -78 54 -78 60 0 15 3 13
67 -25 32 -19 69 -35 82 -35 24 0 24 1 6 14 -15 11 -20 30 -23 86 -3 45 0 76
7 83 8 8 11 6 11 -8 0 -11 7 -53 17 -93 19 -81 40 -109 108 -142 76 -37 122
-130 110 -221 -6 -44 -5 -49 13 -49 42 0 44 126 3 213 -16 34 -39 98 -51 143
-20 76 -21 89 -10 220 6 76 12 189 13 249 l2 110 75 7 c85 9 361 73 402 94 31
16 26 23 47 -75 9 -40 6 -51 -21 -105 -62 -125 -180 -261 -286 -331 -23 -15
-41 -29 -39 -31 2 -2 41 9 88 25 86 29 165 65 231 107 21 14 38 20 38 15 0 -6
-15 -70 -34 -143 -36 -137 -71 -233 -149 -401 -52 -110 -42 -133 15 -35 78
138 142 314 178 494 14 67 29 116 40 128 18 19 19 18 34 -19 21 -50 21 -50
-16 -79 -18 -14 -29 -26 -25 -26 5 0 20 9 35 20 14 11 28 17 32 13 14 -16 80
-182 94 -235 8 -30 17 -94 20 -144 13 -174 18 -214 28 -214 8 0 9 38 5 121 -3
66 -3 118 -1 116 3 -2 22 -56 44 -118 25 -75 44 -115 54 -117 9 -2 16 0 16 5
0 32 -163 461 -210 553 -11 22 -20 44 -20 51 0 6 29 38 63 70 77 70 164 174
212 255 20 32 38 59 41 59 9 0 130 -395 165 -534 34 -138 59 -304 59 -398 0
-52 3 -63 16 -63 15 0 16 11 10 100 -14 205 -49 362 -160 713 -36 115 -66 216
-66 226 0 9 14 55 31 101 94 260 126 538 98 866 -10 115 -9 144 6 225 10 55
18 147 18 222 0 70 2 127 3 127 1 0 14 -48 28 -107 30 -127 47 -304 36 -388
-4 -33 -4 -66 0 -73 4 -8 17 52 30 132 32 204 26 390 -20 597 l-32 146 35 46
c55 72 79 146 85 264 5 116 -15 203 -66 283 l-28 45 20 45 c16 36 21 66 21
150 0 95 -3 111 -28 161 -34 71 -96 141 -149 171 -33 19 -42 29 -44 56 -14
127 -220 342 -367 383 -27 7 -57 30 -103 78 -111 118 -286 191 -474 197 -58 2
-123 -1 -145 -7z m144 -29 c-89 -11 -190 -46 -256 -89 -136 -88 -235 -227
-249 -351 -8 -69 -1 -66 -169 -73 -104 -5 -241 -35 -304 -67 -36 -18 -36 -18
-64 6 -16 13 -36 24 -46 24 -12 0 -22 16 -35 56 -10 31 -16 57 -14 58 2 2 59
13 128 25 69 12 138 25 154 28 l29 5 -23 -36 c-30 -50 -20 -56 16 -9 128 171
340 311 584 386 147 46 142 45 230 45 l75 -1 -56 -7z m379 -121 c34 -22 73
-54 88 -72 l26 -31 -33 -29 c-85 -72 -198 -157 -222 -166 -22 -9 -28 -6 -49
25 -48 71 -197 144 -298 144 l-35 0 25 20 c14 10 70 42 124 71 77 41 117 55
180 64 122 19 128 19 194 -26z m222 -164 c79 -40 140 -87 203 -155 62 -67 120
-174 111 -205 -3 -13 -47 -46 -112 -85 -160 -98 -151 -94 -158 -73 -18 58 -64
144 -96 179 l-38 41 23 20 c12 11 58 44 102 74 43 30 84 57 89 61 6 4 8 10 5
13 -4 3 -61 -24 -128 -60 -66 -36 -126 -65 -132 -65 -6 0 -23 8 -37 19 -40 27
-129 71 -147 71 -21 0 -19 19 3 27 23 8 83 55 161 124 47 42 68 55 80 49 9 -4
41 -20 71 -35z m-645 -6 c99 -18 189 -77 215 -140 11 -26 11 -33 -4 -47 -15
-15 -16 -15 -16 7 0 14 -17 40 -43 66 -52 53 -120 75 -226 75 -100 0 -184 -21
-280 -69 -69 -35 -78 -38 -74 -20 8 27 193 118 264 129 79 11 99 11 164 -1z
m-1163 -90 c11 -14 20 -32 22 -40 1 -8 7 -23 13 -34 6 -11 16 -39 22 -62 l11
-42 -94 -91 c-52 -50 -98 -92 -102 -93 -5 -1 -14 26 -21 61 -7 34 -17 70 -22
80 -7 14 -5 27 10 51 10 17 19 37 19 43 0 6 14 34 32 62 17 28 37 61 45 74 17
28 40 25 65 -9z m1201 14 c66 -18 122 -63 132 -106 6 -23 0 -33 -46 -76 l-54
-49 -63 24 c-79 30 -240 61 -360 70 -60 4 -92 11 -92 19 0 16 209 114 275 128
48 11 153 6 208 -10z m-1571 -39 c32 -6 39 -11 51 -48 l14 -41 -156 0 c-147 0
-160 -2 -219 -27 -35 -15 -86 -41 -113 -57 l-49 -31 -15 37 c-9 20 -14 44 -13
51 5 24 108 76 198 99 85 22 223 30 302 17z m194 -121 l-24 -48 -17 39 c-9 21
-15 40 -13 41 5 5 73 22 76 19 2 -1 -8 -24 -22 -51z m1731 15 c36 -18 82 -47
101 -65 19 -18 38 -33 42 -33 22 0 130 -175 130 -211 0 -9 -9 -24 -19 -33 -18
-17 -20 -15 -36 36 -10 29 -29 75 -43 101 -45 84 -169 179 -272 208 -54 15
-54 15 -45 29 11 18 66 6 142 -32z m-1845 -19 c21 -5 42 -18 48 -29 14 -27 12
-32 -8 -21 -37 20 -227 53 -269 47 -24 -3 -43 -1 -43 4 0 20 192 20 272 -1z
m1804 -33 c91 -45 180 -131 216 -208 34 -70 38 -107 16 -121 -13 -9 -24 -4
-57 26 -108 98 -228 172 -400 248 l-34 15 54 43 c47 37 59 41 93 37 22 -2 72
-21 112 -40z m-2096 15 c0 -10 -7 -24 -15 -31 -20 -16 -19 -38 3 -75 10 -16
28 -58 40 -92 19 -51 21 -69 13 -104 -8 -37 -6 -56 16 -122 15 -44 37 -94 49
-112 28 -41 15 -57 -39 -48 -27 4 -38 12 -46 32 -5 14 -43 118 -84 231 -41
113 -82 221 -91 241 l-15 37 57 25 c50 22 78 32 105 36 4 0 7 -7 7 -18z m1135
-13 c-22 -11 -79 -60 -126 -107 -72 -72 -94 -102 -132 -181 -26 -52 -53 -121
-61 -152 -26 -103 -39 -257 -33 -390 4 -71 3 -128 0 -128 -5 0 -133 55 -150
65 -2 1 9 40 23 86 32 106 52 218 60 336 7 88 8 92 28 87 40 -10 60 18 64 88
3 52 -6 155 -21 220 -5 25 247 96 343 97 l45 0 -40 -21z m419 -3 c74 -14 170
-36 213 -50 90 -29 268 -115 268 -130 1 -5 13 -32 27 -60 42 -82 115 -274 138
-365 41 -159 61 -334 67 -572 4 -148 2 -228 -4 -228 -6 0 -13 54 -16 128 -7
138 -49 464 -71 552 -20 80 -107 353 -115 365 -4 6 -13 36 -20 68 -21 95 -29
64 -10 -35 52 -266 43 -547 -26 -843 -46 -198 -109 -337 -201 -450 -31 -36
-57 -65 -59 -63 -2 2 16 42 39 89 46 94 69 175 92 332 8 56 26 143 39 192 37
138 63 335 44 335 -5 0 -9 -18 -9 -40 0 -64 -45 -266 -62 -276 -4 -3 -8 -16
-8 -29 0 -31 -117 -265 -178 -354 -88 -130 -159 -201 -302 -304 -20 -14 -17
-14 17 3 57 27 183 130 237 193 54 64 105 144 168 262 26 50 48 84 48 76 0
-36 -53 -268 -75 -328 -27 -70 -74 -153 -108 -190 -15 -17 -17 -23 -6 -23 19
0 157 141 196 200 93 139 138 280 189 589 l5 34 26 -38 c14 -21 48 -85 76
-144 48 -99 51 -112 55 -198 l4 -92 -101 35 c-56 20 -107 33 -114 31 -7 -3 2
-10 18 -16 17 -6 67 -26 113 -43 l82 -33 0 -57 c0 -77 -20 -252 -35 -310 -7
-27 -10 -48 -8 -48 12 0 65 197 83 308 7 39 15 70 20 67 18 -11 70 -350 70
-462 l0 -51 -32 30 c-43 40 -211 120 -333 158 -112 34 -141 44 -169 55 -14 6
-17 5 -12 -3 4 -7 2 -12 -6 -12 -9 0 -9 -3 2 -10 12 -8 10 -10 -10 -11 -17 -1
-19 -3 -7 -6 31 -8 18 -20 -35 -32 -72 -16 -94 -31 -47 -31 20 0 50 -3 66 -6
l29 -6 -40 -79 c-36 -73 -39 -88 -43 -177 -2 -62 1 -115 10 -147 11 -44 19
-53 58 -74 61 -32 237 -107 280 -119 36 -9 38 -8 82 37 67 68 117 200 117 310
0 65 18 67 60 7 26 -38 30 -54 30 -108 0 -116 -39 -322 -71 -382 -12 -20 1
-16 34 12 15 14 17 13 17 -6 0 -35 -16 -66 -67 -129 -46 -57 -110 -118 -163
-155 l-25 -17 32 10 c17 6 69 32 115 58 45 27 85 47 87 45 7 -6 -21 -141 -39
-180 -22 -50 -81 -93 -183 -134 -102 -41 -128 -46 -352 -76 -133 -18 -251 -27
-353 -28 -143 -1 -155 -2 -171 -22 -12 -15 -25 -20 -51 -17 -21 3 -43 -2 -54
-10 -17 -12 -24 -12 -53 -1 -18 8 -44 12 -57 8 -16 -4 -35 3 -62 21 -28 19
-49 25 -76 24 -30 -3 -41 2 -58 24 -13 17 -31 27 -47 27 -17 0 -27 7 -30 21
-4 13 -35 35 -92 64 -227 114 -463 307 -518 423 -18 37 -23 65 -23 130 0 45 2
82 5 82 3 0 21 -17 40 -37 l36 -38 -33 54 c-28 46 -33 65 -36 130 -3 42 -2 74
1 71 3 -3 32 -45 65 -95 66 -99 144 -183 226 -245 62 -47 91 -53 48 -11 -60
60 -147 301 -178 491 -19 113 -14 256 11 315 52 125 96 205 114 205 17 0 17
-3 5 -52 -26 -97 -13 -311 21 -364 14 -22 54 -31 269 -60 156 -20 168 -19 214
19 69 55 119 188 124 334 2 42 7 63 16 63 7 0 13 -14 13 -32 2 -31 2 -31 6 -5
2 15 10 28 16 28 7 1 17 2 22 4 6 1 18 3 27 3 14 2 10 10 -17 37 -42 42 -44
55 -7 56 24 2 24 2 4 6 -13 3 -26 11 -29 19 -6 15 16 324 24 336 2 5 6 39 8
76 3 64 -5 65 -19 2 -9 -40 -19 -48 -55 -42 l-33 5 5 231 c5 236 20 358 58
481 10 32 16 61 14 64 -8 7 -61 -117 -83 -194 -42 -142 -72 -310 -88 -500 -9
-98 -19 -70 -23 60 -2 84 26 352 50 475 16 82 49 190 71 233 11 22 17 41 14
44 -7 7 -43 -66 -70 -145 -21 -60 -44 -162 -61 -277 -4 -25 -19 -55 -40 -80
l-34 -40 -1 55 c-1 163 48 359 118 474 46 77 162 192 230 229 97 53 190 58
386 22z m-1349 -5 c39 -6 87 -15 108 -21 34 -9 37 -12 37 -47 0 -49 17 -107
36 -127 12 -12 13 -19 5 -29 -9 -11 -21 -10 -67 6 -30 10 -87 22 -126 26 l-72
7 -38 70 c-38 71 -48 119 -25 128 12 5 19 5 142 -13z m213 -120 c11 -41 18
-76 16 -78 -1 -2 -11 1 -23 7 -24 13 -41 68 -41 131 0 39 2 43 15 29 8 -8 23
-48 33 -89z m324 65 c22 -38 42 -164 36 -227 -6 -57 -10 -62 -37 -53 -16 5
-21 15 -21 39 0 18 -6 40 -13 51 -18 23 -64 15 -144 -25 -32 -16 -65 -30 -74
-30 -9 0 -24 18 -35 41 l-18 42 24 16 c14 8 59 48 100 87 41 39 84 76 95 83
33 18 67 9 87 -24z m-897 -82 c21 -60 67 -186 102 -281 59 -160 63 -176 51
-203 -7 -16 -15 -28 -18 -26 -3 1 -32 16 -65 33 -33 18 -85 37 -116 44 -88 20
-96 30 -133 171 -51 194 -51 180 -7 239 31 41 131 130 146 130 2 0 20 -48 40
-107z m2955 -30 c28 -32 65 -87 83 -123 29 -59 32 -73 32 -160 0 -68 -5 -108
-18 -142 -17 -45 -20 -47 -65 -53 -26 -3 -57 -10 -70 -16 -35 -14 -39 -12 -46
23 -3 18 -21 63 -38 102 -26 54 -30 70 -19 74 22 7 185 93 195 103 19 17 -3
20 -33 4 -36 -18 -202 -78 -205 -73 -38 57 -85 114 -112 136 l-35 29 28 12
c15 6 73 41 128 76 55 35 105 64 112 64 6 1 35 -25 63 -56z m-598 -120 c190
-145 347 -338 466 -571 186 -363 298 -776 275 -1017 l-7 -80 -8 65 c-13 112
-28 181 -65 305 -34 116 -154 398 -160 378 -2 -5 14 -48 36 -95 65 -141 74
-183 74 -363 1 -184 -14 -278 -69 -437 -102 -293 -288 -546 -494 -673 l-45
-27 46 48 c69 74 130 159 184 259 27 50 73 127 102 172 76 117 149 274 172
372 11 47 18 87 16 90 -7 6 -9 3 -33 -76 -22 -71 -136 -313 -147 -313 -3 0
-28 21 -56 47 -49 46 -106 144 -94 162 3 5 22 8 43 5 l37 -4 -34 13 c-42 16
-49 33 -50 119 -1 76 -24 265 -45 363 -7 36 -10 65 -6 65 4 0 36 -18 71 -41
63 -40 63 -41 34 -9 -16 17 -51 47 -77 66 -64 47 -74 90 -81 314 -12 375 -72
648 -201 903 l-35 69 27 -18 c15 -9 71 -51 124 -91z m-1897 49 c68 -17 69 -18
77 -55 4 -21 12 -46 18 -56 8 -15 3 -23 -28 -44 -21 -14 -60 -43 -86 -66 -26
-23 -52 -41 -57 -41 -33 0 -129 166 -129 224 0 16 8 35 18 42 23 18 102 16
187 -4z m137 -77 c2 -15 -2 -30 -8 -32 -14 -5 -36 79 -27 103 6 15 9 13 19
-12 7 -17 14 -43 16 -59z m243 -29 l0 -69 -70 -23 c-38 -12 -124 -43 -190 -69
-133 -51 -177 -66 -182 -61 -6 5 141 140 197 181 83 59 192 115 220 112 24 -2
25 -5 25 -71z m1816 7 c39 -41 126 -175 148 -227 34 -79 41 -114 24 -121 -19
-7 -15 -13 -43 60 -44 111 -158 263 -227 304 -17 11 -17 12 1 26 16 12 22 12
45 0 14 -7 38 -26 52 -42z m-61 -47 c90 -93 196 -271 188 -313 -2 -11 -28 18
-73 82 -39 55 -105 137 -148 182 -70 73 -76 82 -60 92 30 17 39 13 93 -43z
m-1760 -112 c0 -63 -18 -195 -29 -206 -4 -4 -103 -15 -221 -23 -118 -9 -224
-18 -236 -21 -18 -5 -22 2 -32 47 -7 29 -11 53 -10 54 15 10 222 101 288 126
47 17 112 42 145 55 91 35 95 34 95 -32z m1491 -289 c37 -176 63 -429 34 -333
-9 30 -93 177 -115 203 -16 18 -17 30 -8 125 5 58 7 155 4 215 l-5 110 30 -90
c17 -49 43 -153 60 -230z m-2591 226 c97 -19 210 -48 219 -56 2 -3 -7 -5 -20
-5 -21 -1 -19 -4 16 -23 l40 -22 -65 -2 c-62 -3 -337 -29 -391 -38 -24 -4 -28
1 -49 64 -33 95 -29 101 72 101 46 -1 126 -9 178 -19z m1430 -72 c-6 -41 -13
-170 -17 -287 l-6 -213 -31 3 -31 3 3 65 c8 152 72 523 89 507 2 -3 -1 -38 -7
-78z m-912 7 c13 -16 32 -95 35 -141 2 -37 0 -40 -26 -43 -34 -4 -49 11 -66
68 -7 25 -20 52 -28 62 -13 14 -12 19 7 41 22 26 63 33 78 13z m2828 -113 c52
-129 43 -316 -24 -458 l-29 -60 -18 50 c-10 28 -39 102 -66 165 -26 63 -47
116 -45 118 2 2 44 -3 92 -12 136 -23 130 -5 -11 35 -95 26 -95 26 -95 131 0
75 -9 66 90 87 77 15 76 16 106 -56z m-2927 25 c4 -13 11 -37 14 -55 6 -31 5
-32 -76 -76 -78 -42 -359 -157 -418 -171 -25 -5 -29 -1 -67 82 -75 164 -86
193 -74 201 7 4 72 13 145 19 72 7 146 14 162 16 17 2 92 4 168 5 134 1 138 0
146 -21z m2696 -5 c3 -10 8 -47 11 -83 5 -61 4 -63 -10 -40 -16 28 -36 126
-28 135 10 10 20 5 27 -12z m-2070 -119 c-15 -58 -34 -108 -41 -111 -7 -3 -43
9 -79 26 -36 17 -69 31 -74 31 -4 0 -27 14 -50 30 -23 17 -57 38 -76 47 -19 9
-35 20 -35 24 0 12 92 30 229 45 74 8 137 16 139 19 16 16 12 -16 -13 -111z
m257 -91 l-2 -198 -81 -8 c-69 -6 -137 -24 -201 -52 -14 -5 -18 -2 -18 12 0
23 56 75 124 115 27 16 64 41 82 55 33 25 34 27 34 101 0 67 3 80 31 124 17
26 32 48 33 48 0 0 0 -89 -2 -197z m-744 67 c-7 -10 -14 -17 -17 -15 -4 4 18
35 25 35 2 0 -1 -9 -8 -20z m162 -10 c21 -11 65 -29 97 -41 67 -24 83 -41 83
-83 0 -21 -11 -41 -37 -68 l-37 -38 -84 0 c-83 0 -84 0 -78 23 3 12 6 68 6
125 0 56 2 102 5 102 3 0 23 -9 45 -20z m-225 -89 c-14 -44 -40 -101 -58 -127
-60 -90 -207 -234 -240 -234 -5 0 10 21 34 48 94 100 165 215 193 314 9 30 24
62 34 71 20 17 55 26 60 15 2 -4 -8 -44 -23 -87z m136 89 c20 -11 25 -49 13
-108 -7 -33 -129 -173 -187 -214 -30 -22 -30 -21 10 33 58 77 107 182 127 272
7 30 9 31 37 17z m-363 -92 c-52 -57 -97 -95 -144 -122 -88 -50 -118 -50 -161
0 -34 39 -35 54 -3 54 20 0 302 109 350 135 14 8 27 14 29 15 2 0 -30 -37 -71
-82z m126 -20 c-28 -68 -93 -169 -148 -233 l-35 -40 -1 78 0 77 103 99 c56 55
103 96 105 91 2 -4 -9 -37 -24 -72z m802 9 c3 -2 -59 -40 -138 -82 -79 -43
-162 -90 -185 -106 l-42 -27 -10 30 c-6 17 -11 32 -11 34 0 1 16 8 35 14 52
17 88 65 83 111 l-3 38 46 -6 c46 -5 47 -5 58 30 l12 35 75 -33 c41 -18 77
-35 80 -38z m-1259 -149 c25 -27 104 -78 122 -78 9 0 40 18 69 40 29 22 55 40
57 40 3 0 5 -35 5 -79 l0 -79 -39 -35 c-47 -42 -80 -61 -140 -77 l-44 -12 -79
79 c-91 90 -138 158 -138 198 0 15 19 60 42 100 l42 72 43 -75 c24 -42 51 -84
60 -94z m862 -35 c6 -21 11 -43 11 -49 0 -6 12 -33 26 -60 29 -54 29 -55 -48
-95 -35 -18 -222 -49 -232 -38 -3 2 10 34 28 69 18 36 41 95 51 132 l20 67 55
4 c30 2 60 4 67 5 7 1 17 -15 22 -35z m521 -123 c7 -72 11 -132 9 -134 -2 -2
-26 0 -54 4 -27 5 -68 9 -90 8 -45 0 93 -25 185 -33 44 -4 48 -3 22 4 -18 5
-36 12 -40 16 -4 4 -9 65 -11 136 l-3 129 41 0 41 0 0 -42 c0 -44 35 -277 43
-284 2 -2 10 50 17 116 6 66 14 120 15 120 6 0 -7 -255 -14 -261 -3 -4 -60 7
-126 23 -130 31 -297 41 -440 25 l-70 -8 28 24 c22 17 29 32 31 62 3 52 31
105 56 105 11 0 27 15 41 40 12 22 32 43 43 46 41 13 163 32 212 33 l51 1 13
-130z m170 114 c0 -19 -19 -135 -28 -174 -3 -16 -10 11 -18 75 -7 55 -10 103
-7 107 9 16 53 8 53 -8z m-540 -19 c30 -15 39 -38 20 -50 -5 -3 -28 5 -51 18
-37 22 -39 26 -23 36 24 13 20 14 54 -4z m-103 -37 c-3 -8 -6 -5 -6 6 -1 11 2
17 5 13 3 -3 4 -12 1 -19z m53 -18 c12 -8 12 -13 -2 -42 l-15 -33 -4 43 c-5
44 -3 47 21 32z m-39 -130 c20 -11 25 -35 9 -45 -5 -3 -21 2 -35 11 -20 13
-23 19 -14 30 14 17 15 17 40 4z m-56 -42 c40 -18 28 -42 -25 -48 l-45 -6 33
-8 c18 -4 31 -13 29 -19 -3 -11 -119 -58 -182 -73 -24 -6 -16 -9 45 -15 41 -3
78 -4 83 -2 12 7 8 -5 -13 -47 -24 -48 -33 -52 -18 -9 12 36 4 50 -12 19 -22
-42 -40 -157 -40 -265 0 -195 39 -373 121 -544 27 -57 49 -106 49 -110 0 -3
-32 26 -71 64 -73 73 -204 256 -215 303 -4 15 -13 36 -20 48 -29 43 -60 149
-93 319 -28 140 12 -202 54 -460 5 -25 2 -23 -15 13 -60 130 -123 387 -136
553 l-7 85 51 38 c28 20 74 62 103 94 49 53 55 57 93 54 23 -1 73 4 111 12 90
18 89 18 120 4z m1866 -138 c-8 -43 -9 -42 -10 31 -1 42 2 79 7 83 11 12 13
-63 3 -114z m-1555 -5 c98 -17 135 -27 207 -58 l49 -20 -4 -81 c-3 -78 -2 -81
20 -84 25 -4 26 -6 12 -33 -6 -10 -19 -19 -29 -19 -12 0 -22 -13 -30 -42 -18
-57 -61 -99 -98 -93 -15 2 -80 11 -143 20 -63 9 -135 22 -160 29 l-45 12 0
130 c1 98 5 142 19 184 10 30 21 58 23 63 7 12 83 8 179 -8z m-1076 -191 c0
-17 -44 -172 -73 -259 -70 -204 -203 -500 -259 -574 -90 -120 -367 -436 -375
-428 -2 2 25 46 60 98 36 52 96 150 135 219 38 69 92 163 119 210 73 128 154
307 217 480 72 199 83 221 126 242 37 19 50 22 50 12z m2373 -159 c80 -17 173
-57 200 -86 24 -25 33 -124 19 -187 -8 -35 -7 -44 4 -49 21 -8 17 -31 -6 -38
-11 -4 -29 -24 -40 -45 -29 -57 -51 -69 -108 -59 -53 10 -223 90 -253 120 -43
43 -8 270 53 347 13 16 47 15 131 -3z m804 -510 c-11 -407 -128 -751 -339
-995 -21 -24 -38 -41 -38 -38 0 3 19 37 42 74 97 161 158 331 173 489 3 39 9
82 11 98 3 16 1 27 -5 27 -6 0 -11 -16 -11 -35 0 -104 -56 -275 -123 -376 -44
-67 -163 -198 -226 -251 -25 -21 -55 -46 -66 -57 -33 -30 -78 -58 -151 -94
-120 -60 -125 -56 -32 32 127 120 166 187 260 441 58 158 72 208 86 312 l10
78 89 94 c131 137 212 267 279 449 l29 79 8 -74 c5 -40 6 -154 4 -253z m-2698
203 c2 -52 -16 -36 -27 26 -7 35 -12 70 -11 77 1 24 38 -75 38 -103z m2418
-39 l22 -16 -58 -84 c-33 -46 -82 -109 -110 -139 l-51 -55 19 57 c21 62 51
233 51 293 l0 37 53 -38 c28 -21 62 -45 74 -55z m-2171 -682 l72 -49 -52 -108
-51 -107 -30 9 c-53 16 -167 13 -203 -6 -38 -20 -37 -24 -18 99 8 50 17 126
20 170 4 44 9 106 12 137 l6 57 86 -76 c48 -42 119 -98 158 -126z m-599 -46
c-8 -156 -37 -332 -72 -439 -29 -87 -114 -249 -115 -217 0 30 47 320 65 400
19 86 115 385 122 385 4 0 3 -58 0 -129z m770 -60 c43 -22 97 -45 121 -53 l42
-13 0 -68 c0 -62 -2 -68 -24 -78 -20 -9 -37 -6 -96 17 l-71 28 -21 -21 c-19
-20 -23 -20 -57 -6 -20 9 -46 19 -58 24 l-23 8 24 35 c13 19 36 64 52 100 16
36 30 66 31 66 1 0 37 -18 80 -39z m1742 -73 c-11 -29 -22 -60 -26 -68 -4 -10
-11 1 -19 30 -11 35 -11 46 -1 51 6 4 21 15 32 23 32 25 34 19 14 -36z m-1475
-34 c9 -8 16 -18 16 -20 0 -7 -38 15 -45 26 -10 16 12 12 29 -6z m1750 -51
c-52 -118 -175 -323 -193 -323 -3 0 -13 18 -22 39 -16 38 -16 40 3 58 40 35
169 186 200 234 17 27 33 49 35 49 1 0 -9 -26 -23 -57z m-1758 12 c72 -55 167
-80 306 -80 l117 0 -6 -25 c-3 -14 -8 -27 -10 -30 -7 -8 -194 -6 -233 3 -19 4
-48 10 -65 13 -35 8 -122 50 -147 72 -16 13 -26 82 -13 82 3 0 25 -16 51 -35z
m165 -26 l24 -20 -29 6 c-16 3 -43 12 -60 20 l-31 13 36 1 c24 1 45 -6 60 -20z
m550 -19 l156 0 -8 -49 c-10 -65 -40 -173 -51 -188 -7 -9 -14 -7 -28 7 -23 23
-125 35 -220 26 l-70 -7 -20 33 c-22 35 -21 84 2 157 10 31 12 33 47 27 20 -3
106 -6 192 -6z m-1130 -36 l76 -27 -8 -36 c-12 -53 -11 -122 4 -151 20 -41 66
-50 246 -48 l164 1 19 -38 c19 -37 19 -38 1 -55 -10 -10 -38 -21 -63 -25 -42
-5 -44 -5 -26 10 11 8 15 15 9 15 -7 0 -15 -5 -18 -11 -5 -6 -22 -8 -46 -4
-28 5 -47 2 -64 -9 -13 -9 -32 -13 -42 -10 -15 5 -16 4 -3 -5 8 -6 10 -11 4
-11 -6 0 -27 -3 -45 -6 -32 -5 -33 -5 -15 10 11 9 15 16 9 16 -5 0 -18 -9 -28
-20 -13 -15 -22 -17 -36 -10 -25 14 -42 12 -65 -6 -18 -15 -18 -15 3 -5 26 13
53 14 53 2 0 -5 -15 -11 -32 -15 -25 -5 -36 -2 -46 11 -11 16 -14 16 -22 3 -5
-8 -10 -18 -10 -22 0 -18 -18 -6 -23 15 -35 153 -48 212 -52 243 -5 38 -11 51
-20 42 -5 -4 21 -175 41 -266 l7 -33 -50 7 c-63 8 -140 -8 -214 -46 l-57 -29
-12 116 c-17 156 -8 250 31 331 26 53 39 67 73 83 54 26 152 20 257 -17z m682
29 c-7 -2 -19 -2 -25 0 -7 3 -2 5 12 5 14 0 19 -2 13 -5z m132 -3 c-11 -5 -31
-9 -45 -9 -20 -1 -22 1 -10 9 8 5 29 9 45 9 26 0 27 -2 10 -9z m-567 -48 c131
-59 217 -115 157 -102 -5 1 -76 21 -156 43 l-145 42 8 33 c5 17 13 32 18 32 6
0 59 -22 118 -48z m146 13 c11 -8 15 -15 10 -15 -6 0 -19 7 -30 15 -10 8 -14
14 -9 14 6 0 19 -6 29 -14z m12 -25 c15 0 41 -13 62 -31 33 -29 39 -31 88 -25
71 8 78 -9 10 -25 l-54 -12 -90 48 c-50 27 -89 52 -86 57 3 4 14 4 24 -2 10
-5 31 -10 46 -10z m-77 -86 c106 -32 202 -76 179 -81 -9 -2 -90 11 -180 30
-90 19 -180 38 -200 41 -33 6 -38 10 -38 35 0 15 3 30 6 33 6 6 84 -13 233
-58z m201 56 c24 -8 24 -8 -7 -9 -17 -1 -35 4 -38 9 -7 11 9 11 45 0z m161
-29 c-12 -8 -51 -4 -51 5 0 2 15 4 33 4 22 0 28 -3 18 -9z m132 -34 c2 -12 7
-29 11 -38 6 -13 -1 -17 -30 -22 -33 -6 -41 -2 -74 32 l-37 38 25 9 c15 5 43
8 63 6 28 -3 38 -9 42 -25z m-1613 -52 c-4 -27 -13 -95 -20 -151 -11 -97 -13
-103 -62 -168 -27 -37 -52 -66 -54 -63 -3 3 27 103 66 222 40 119 73 215 75
213 2 -2 -1 -25 -5 -53z m1485 31 c9 -13 15 -28 14 -32 -4 -22 2 -34 17 -34
13 0 14 -3 4 -15 -6 -8 -9 -23 -5 -34 3 -10 1 -22 -5 -26 -6 -4 -8 -14 -6 -23
10 -31 -9 -45 -50 -38 -67 12 -73 16 -98 67 -30 59 -25 80 28 127 44 38 80 41
101 8z m-381 -37 c71 -16 131 -31 134 -34 5 -5 -49 -9 -93 -8 -257 9 -281 14
-268 61 5 22 9 23 52 17 25 -4 104 -20 175 -36z m961 -46 c-13 -149 -14 -154
-36 -140 -14 9 -18 19 -14 37 12 50 48 170 52 170 2 0 1 -30 -2 -67z m-110 27
c21 -8 26 -16 23 -38 -2 -15 -7 -26 -13 -25 -5 1 -66 6 -135 13 -69 6 -136 14
-150 17 -24 6 -23 6 10 15 83 22 109 26 172 27 37 0 79 -4 93 -9z m-352 -17
c-7 -2 -21 -2 -30 0 -10 3 -4 5 12 5 17 0 24 -2 18 -5z m112 -38 c55 -3 137
-11 182 -17 l82 -11 -6 -31 c-3 -17 -7 -33 -9 -35 -4 -4 -55 4 -263 44 -74 14
-137 27 -139 30 -13 12 10 35 30 31 13 -3 68 -8 123 -11z m47 -77 c57 -11 104
-22 105 -22 1 -1 -3 -20 -9 -43 -10 -40 -11 -41 -39 -31 -16 5 -29 14 -29 19
0 4 -7 5 -17 2 -10 -4 -14 -2 -10 4 4 6 0 14 -9 17 -8 3 -12 2 -9 -4 3 -6 -1
-7 -9 -4 -9 3 -14 10 -11 14 3 4 -8 13 -23 19 -15 6 -41 20 -57 31 -27 18 -28
20 -8 20 12 0 69 -10 125 -22z m-98 -54 c54 -30 117 -62 140 -71 51 -20 59
-27 54 -47 -2 -13 -11 -11 -48 14 -33 22 -57 30 -89 30 -32 0 -51 6 -67 21
-13 12 -33 27 -44 33 -23 12 -68 76 -53 76 4 0 53 -25 107 -56z m296 0 c0 -7
-5 -25 -11 -41 l-12 -28 -7 25 c-15 48 -12 69 10 63 11 -3 20 -11 20 -19z
m-815 6 c-3 -5 -21 -10 -38 -10 -24 0 -28 3 -17 10 20 13 63 13 55 0z m204 1
c11 -7 3 -25 -40 -88 -30 -43 -65 -95 -76 -115 -28 -47 -83 -208 -83 -240 0
-48 -40 -62 -81 -29 -22 18 -23 21 -12 80 22 115 91 227 221 358 47 46 50 47
71 34z m85 -22 c13 -65 11 -69 -44 -69 -27 0 -50 3 -50 8 0 18 41 72 55 72 8
0 15 5 15 10 0 23 18 7 24 -21z m-214 -39 c-23 -27 -45 -52 -50 -55 -16 -10
-246 -47 -297 -49 -46 -1 -53 2 -58 21 -8 34 4 52 44 62 102 27 163 40 231 51
41 7 82 13 90 15 8 1 30 3 48 4 l34 1 -42 -50z m255 44 c15 -6 55 -73 55 -92
0 -5 -17 -4 -37 3 -35 12 -38 17 -41 54 -3 44 -3 44 23 35z m171 -52 c-4 -3
-14 2 -24 12 -16 18 -16 18 6 6 13 -6 21 -14 18 -18z m391 -52 c19 -43 33
-100 24 -100 -15 1 -40 28 -60 68 -14 27 -28 42 -41 42 -18 0 -18 1 3 34 l22
34 18 -21 c10 -12 25 -38 34 -57z m-1283 30 c39 -14 33 -33 -6 -24 -18 4 -60
7 -93 6 -55 -2 -82 -11 -197 -70 -5 -2 -8 3 -8 12 0 17 60 51 125 72 48 15
144 18 179 4z m976 -10 c0 -13 -11 -13 -30 0 -12 8 -11 10 8 10 12 0 22 -4 22
-10z m-30 -43 c0 -22 -1 -22 -20 3 -25 32 -25 43 0 30 11 -6 20 -21 20 -33z
m-194 17 c41 -17 47 -26 78 -114 l27 -75 -33 -27 c-18 -15 -36 -24 -39 -20 -4
4 -12 32 -18 62 -13 61 -32 110 -43 110 -4 0 -1 -17 7 -39 7 -21 17 -65 21
-97 l7 -58 -48 42 c-47 41 -174 112 -201 112 -8 0 -14 6 -14 13 0 24 58 95 82
100 44 9 143 4 174 -9z m-731 -14 c8 -7 15 -21 15 -32 0 -17 -5 -20 -30 -14
-18 3 -47 -1 -70 -10 -22 -9 -50 -14 -62 -11 -13 4 -39 2 -60 -2 -32 -8 -37
-6 -42 13 -11 39 -6 45 42 61 55 17 183 15 207 -5z m1203 -15 c14 -29 -2 -34
-18 -6 -12 24 -13 31 -2 31 5 0 14 -11 20 -25z m-850 -14 c-11 -18 -23 -21
-79 -21 -37 0 -86 -7 -109 -15 -52 -18 -61 -19 -54 -1 6 15 237 71 252 60 2
-1 -3 -11 -10 -23z m-272 -42 c3 -6 1 -16 -5 -22 -6 -6 -11 -21 -11 -34 0 -13
-6 -23 -12 -23 -7 0 -23 -3 -35 -6 -17 -5 -23 -2 -23 9 0 32 -23 28 -64 -12
-46 -45 -57 -48 -109 -26 -50 21 -78 19 -84 -5 -3 -11 -20 -24 -40 -31 -39
-13 -55 -5 -29 14 16 12 16 14 -3 31 -33 30 -26 46 19 46 22 0 57 7 78 16 25
10 52 14 82 10 33 -4 52 -2 65 9 11 8 40 15 65 15 25 1 54 5 65 10 27 12 33
12 41 -1z m232 -6 c-2 -5 -14 -36 -27 -70 -22 -58 -25 -61 -47 -52 -16 6 -40
5 -69 -3 -56 -15 -75 -1 -75 53 0 36 2 38 53 58 50 19 172 29 165 14z m268
-70 c77 -37 152 -108 160 -150 6 -30 4 -33 -17 -33 -12 0 -36 12 -51 27 -22
21 -37 27 -63 24 -28 -2 -41 4 -65 27 -26 26 -35 29 -69 25 -50 -7 -56 5 -36
68 17 50 18 51 50 46 18 -3 59 -18 91 -34z m-612 -17 c-3 -8 -1 -17 5 -21 6
-3 11 -17 11 -30 0 -23 -2 -23 -32 -13 -50 16 -52 23 -18 52 36 30 42 32 34
12z m106 -15 c0 -11 -40 -22 -54 -14 -5 4 -1 10 10 14 27 11 44 11 44 0z m970
-55 c-12 -12 -30 8 -30 33 0 11 5 10 20 -4 15 -13 17 -22 10 -29z m-1222 28
c28 -8 27 -15 -2 -36 -24 -17 -24 -17 -35 12 -11 32 -6 35 37 24z m1027 -41
c6 -33 3 -40 -20 -60 -21 -18 -30 -21 -46 -13 -29 16 -24 54 12 84 17 14 34
26 39 26 4 0 11 -17 15 -37z"/>
<path d="M3000 2477 c7 -8 223 -77 227 -73 7 7 -147 66 -189 72 -24 4 -41 4
-38 1z"/>
<path d="M2084 1636 c-6 -16 43 -112 53 -102 3 3 -4 17 -16 32 -22 28 -27 59
-12 68 11 7 219 -32 245 -46 19 -10 19 -12 -8 -34 -15 -13 -24 -24 -20 -24 11
0 74 50 74 58 0 9 -174 49 -252 58 -48 5 -59 3 -64 -10z"/>
<path d="M1915 540 c27 -12 43 -12 25 0 -8 5 -22 9 -30 9 -10 0 -8 -3 5 -9z"/>
<path d="M2136 347 c3 -10 9 -15 12 -12 3 3 0 11 -7 18 -10 9 -11 8 -5 -6z"/>
<path d="M1642 120 c0 -14 2 -19 5 -12 2 6 2 18 0 25 -3 6 -5 1 -5 -13z"/>
<path d="M1633 45 c0 -22 2 -30 4 -17 2 12 2 30 0 40 -3 9 -5 -1 -4 -23z"/>
<path d="M1941 44 c0 -11 3 -14 6 -6 3 7 2 16 -1 19 -3 4 -6 -2 -5 -13z"/>
<path d="M2522 40 c0 -14 2 -19 5 -12 2 6 2 18 0 25 -3 6 -5 1 -5 -13z"/>
</g>
</svg>
